<?xml version="1.0" encoding="UTF-8" standalone="no"?>
<svg
   xmlns:dc="http://purl.org/dc/elements/1.1/"
   xmlns:cc="http://creativecommons.org/ns#"
   xmlns:rdf="http://www.w3.org/1999/02/22-rdf-syntax-ns#"
   xmlns:svg="http://www.w3.org/2000/svg"
   xmlns="http://www.w3.org/2000/svg"
   xmlns:sodipodi="http://sodipodi.sourceforge.net/DTD/sodipodi-0.dtd"
   xmlns:inkscape="http://www.inkscape.org/namespaces/inkscape"
   width="900pt"
   height="532pt"
   viewBox="0 0 900 532"
   version="1.1"
   id="svg3430"
   inkscape:version="0.91 r13725"
   sodipodi:docname="gh-logo.svg"
   inkscape:export-filename="/Users/ajs/Desktop/gh-logo.png"
   inkscape:export-xdpi="90"
   inkscape:export-ydpi="90">
  <metadata
     id="metadata3468">
    <rdf:RDF>
      <cc:Work
         rdf:about="">
        <dc:format>image/svg+xml</dc:format>
        <dc:type
           rdf:resource="http://purl.org/dc/dcmitype/StillImage" />
        <dc:title></dc:title>
      </cc:Work>
    </rdf:RDF>
  </metadata>
  <defs
     id="defs3466" />
  <sodipodi:namedview
     pagecolor="#ffffff"
     bordercolor="#666666"
     borderopacity="1"
     objecttolerance="10"
     gridtolerance="10"
     guidetolerance="10"
     inkscape:pageopacity="0"
     inkscape:pageshadow="2"
     inkscape:window-width="1920"
     inkscape:window-height="1151"
     id="namedview3464"
     showgrid="false"
     inkscape:snap-global="true"
     inkscape:zoom="0.90509668"
     inkscape:cx="346.59229"
     inkscape:cy="341.2668"
     inkscape:window-x="0"
     inkscape:window-y="1"
     inkscape:window-maximized="1"
     inkscape:current-layer="svg3430" />
  <path
     style="fill:#020202"
     d="M 97.89,31.8 C 125.31403,22.810376 155.86935,21.675918 183.39139,30.885215 209.72287,39.571311 230.95449,60.67941 241.9,85.91 223.86449,93.38816 205.86191,100.95816 187.85,108.5 180.93175,87.186443 159.32742,71.259512 136.64584,73.662852 112.21868,74.985841 92.977901,95.616094 87.188296,118.40678 c -9.044199,29.38683 -1.063605,65.82778 24.929204,84.12931 17.30622,11.54519 42.09867,11.79875 59.33059,0.01 9.57536,-6.66525 14.9385,-17.85306 15.88191,-29.28613 -15.54332,-0.03 -31.08668,-0.02 -46.63,0 0.04,-14.9533 0.04,-29.9067 0,-44.86 37.66665,-0.05 75.3334,0.05 113,-0.05 0.16111,29.84827 -3.62391,61.56859 -21.94327,86.22964 -18.72015,27.41388 -51.69663,42.72562 -84.47345,43.15755 -37.42442,2.143 -77.030464,-11.95101 -99.941638,-42.66025 C 23.861372,184.25985 19.490639,142.09498 29.27133,105.40533 38.125228,71.286273 64.345692,42.91977 97.89,31.8 Z"
     id="path3434"
     inkscape:connector-curvature="0" />
  <path
     d="m 356.25782,96.790624 c -32.18865,0.02136 -66.83728,14.906956 -81.1146,45.321006 -15.25769,31.54455 -7.20963,74.09166 22.04412,94.90734 28.04824,20.73357 67.26156,24.07201 98.96778,9.94346 11.44769,-5.96284 25.07793,-12.31714 37.8171,-6.04534 21.80893,11.48045 47.02544,18.11555 71.61226,13.02305 29.78399,-4.65235 58.61642,-24.77683 66.75642,-54.83336 8.55323,-29.50064 -0.2481,-64.56411 -25.69934,-83.12194 -26.44805,-19.833432 -63.37869,-24.568304 -94.15497,-12.58435 -11.56006,3.86967 -22.14261,12.44921 -35.00521,10.25693 -13.68719,-2.62013 -25.45546,-11.6082 -39.36004,-14.0857 -7.14822,-1.757608 -14.49526,-2.782008 -21.86352,-2.781096 z m 2.375,45.782816 c 16.21163,-0.0317 30.94153,12.74743 32.62863,29.01565 2.55195,16.7526 -8.60911,35.21053 -26.15301,37.43778 -15.68111,3.44531 -34.40499,-3.92393 -39.52151,-20.06502 -7.31099,-18.26419 3.53948,-42.14575 23.68798,-45.47202 3.068,-0.67686 6.21719,-0.98022 9.35791,-0.91639 z m 127.62656,0.0156 c 17.3142,-0.50933 33.45544,14.041 33.30574,31.66118 2.00036,17.0815 -11.29817,34.25679 -28.73716,35.16582 -15.34935,2.36182 -32.86388,-5.66021 -37.2053,-21.3848 -7.13301,-18.39089 4.70305,-42.13971 25.01809,-44.74752 2.50743,-0.48747 5.06421,-0.72317 7.61863,-0.69468 z"
     id="path3436"
     inkscape:connector-curvature="0" />
  <path
     style="fill:#020202"
     d="m 627.87,100.68 c 20.1438,-6.024215 41.78213,-4.49905 61.94572,0.61361 4.12356,2.36617 16.47264,2.09197 12.08928,8.85264 -5.42438,9.87486 -10.47758,19.96262 -15.825,29.88375 -11.5103,-5.18323 -24.8785,-9.68099 -37.42394,-5.62796 -6.26253,1.61119 -10.66372,9.21799 -5.39496,14.40609 9.82852,7.62474 23.18515,5.90294 34.25682,10.55093 14.13031,4.44774 27.50206,15.53676 29.60706,30.90395 2.16094,14.50491 0.11069,30.46278 -9.75373,41.93574 -13.36415,16.17353 -35.18889,22.70583 -55.5179,23.32054 -22.51026,0.96525 -45.26157,-5.25343 -64.30335,-17.23929 6.71138,-12.15253 12.99256,-24.53506 19.3,-36.9 10.80479,7.54976 23.37563,12.87271 36.39385,14.98443 8.0767,1.31808 19.12204,-0.2645 21.83787,-9.33584 1.80992,-9.68478 -9.94729,-12.96168 -17.30454,-14.60503 -14.69906,-3.36239 -31.63913,-5.61308 -41.60072,-18.28399 -8.51112,-11.68337 -8.76247,-27.74716 -4.52082,-41.10002 5.00823,-16.41855 20.37585,-27.531 36.21436,-32.35955 z"
     id="path3438"
     inkscape:connector-curvature="0" />
  <path
     d="M 1004.0645 120.88281 C 996.84746 120.9291 989.65078 121.63516 982.48828 122.48828 C 957.03828 126.00078 932.21328 138.76328 917.30078 160.11328 C 906.82578 174.60078 901.46172 192.2875 899.82422 209.9375 C 899.53672 217.0375 899.26289 224.1625 900.02539 231.25 C 901.63789 253.9 911.04922 276.56289 928.07422 291.96289 C 937.02422 300.73789 948.20078 306.92422 959.80078 311.51172 C 968.38828 314.31172 977.0875 317.14922 986.125 318.07422 C 1009.6 321.23672 1034.2867 319.55078 1056.0742 309.67578 C 1073.4367 302.10078 1088.4992 288.61172 1096.5742 271.32422 C 1099.0117 266.23672 1100.8633 260.925 1102.1758 255.4375 C 1081.0258 255.4 1059.8883 255.47539 1038.7383 255.40039 C 1034.3883 262.70039 1027.725 268.91289 1019.375 271.15039 C 1012.6625 272.71289 1005.6621 273.45078 998.84961 272.11328 C 986.59961 271.25078 974.91172 264.01328 969.57422 252.80078 C 966.96172 245.93828 965.60078 238.66289 965.48828 231.33789 C 1011.8633 231.27539 1058.2371 231.28789 1104.5996 231.33789 C 1104.5371 223.62539 1104.2754 215.92539 1104.1504 208.21289 L 1103.4004 208.15039 C 1102.9629 198.92539 1100.8133 189.77578 1097.6758 181.11328 C 1096.0133 176.95078 1094.3133 172.80078 1092.3008 168.80078 C 1084.2758 153.46328 1071.5633 140.63789 1056.1133 132.77539 C 1046.0508 127.40039 1034.8871 124.33828 1023.6621 122.61328 C 1019.5746 121.71328 1015.3371 122.08672 1011.2871 121.07422 C 1008.8777 120.92422 1006.4701 120.86738 1004.0645 120.88281 z M 1004.6191 164.04102 C 1011.7026 163.93098 1018.7785 165.00078 1024.9746 168.6875 C 1034.4246 173.6 1041.0633 182.91172 1043.4883 193.19922 C 1017.9008 193.33672 992.30039 193.25078 966.71289 193.23828 C 967.22539 191.21328 967.825 189.21328 968.3125 187.17578 C 972.75 175.68828 983.27461 167.71211 995.03711 164.78711 C 998.17773 164.38477 1001.3994 164.09103 1004.6191 164.04102 z "
     transform="scale(0.8,0.8)"
     id="path3440" />
  <path
     style="fill:#f4cb0a"
     d="m 416.87,255.57 c 7.29144,-1.64603 13.51478,2.18454 19.78209,5.15055 20.19492,8.90234 42.79538,14.22786 64.86395,10.58136 5.36436,-0.64682 10.64054,-2.18594 16.08396,-2.05191 -1.29508,5.94477 -9.93041,7.79818 -14.35742,11.93909 -23.66876,15.34381 -47.29352,30.77659 -70.98949,46.06177 -7.8024,4.75252 -17.84314,3.26244 -24.89163,-2.15856 -13.19507,-8.6528 -26.48385,-17.21453 -39.74613,-25.73035 C 353.76731,290.05227 339.57982,281.24042 325.7,271.97 c -0.72398,-5.93488 9.78603,-0.67897 13.86657,-0.97361 10.72586,1.18831 21.6626,1.10682 32.40373,0.15689 15.71802,-2.49075 30.90301,-8.09329 44.8997,-15.58328 z"
     id="path3448"
     inkscape:connector-curvature="0" />
  <path
     style="fill:#020202"
     d="m 42.38,494.5 c 0.08,-76.97997 0.06,-153.96001 0.01,-230.94 17.633188,0.1 35.266676,0.02 52.9,0.04 -0.01999,33.64332 -0.09001,67.28676 0.02,100.93 9.88956,-13.81121 25.75485,-23.55015 42.98817,-23.85772 20.27978,-2.00005 43.04404,6.04138 52.70365,25.07889 11.49359,20.68237 7.61842,44.93054 8.30177,67.53417 -0.008,20.40155 -0.0284,40.80313 0.0164,61.20466 -17.65328,-0.05 -35.30675,-0.07 -52.96,0 -0.1973,-28.76475 0.49326,-57.55437 -0.42781,-86.30219 -0.0569,-11.12221 -6.21799,-23.69591 -18.26828,-25.31015 -12.68356,-2.75915 -26.53432,5.1668 -29.926224,17.86152 -4.36586,13.43202 -1.770292,27.7772 -2.471072,41.63758 0.0023,17.35775 1.04e-4,34.71549 -0.0066,52.07324 -17.626656,0.03 -35.253478,-0.05 -52.88,0.05 z"
     id="path3450"
     inkscape:connector-curvature="0" />
  <path
     d="m 306.00938,340.38125 c -25.2206,0.19367 -51.40356,8.10677 -69.23057,26.70455 -22.08705,22.38285 -25.96798,58.81186 -13.15,86.83492 13.03379,27.67838 43.50571,43.01738 73.05534,44.99442 31.52851,2.6952 66.43273,-7.83616 85.46691,-34.41752 14.18061,-19.56543 16.70796,-45.82513 10.14894,-68.657 -7.64405,-26.06512 -31.13764,-45.03016 -56.92059,-51.59668 -9.56139,-2.5297 -19.50581,-3.56462 -29.37003,-3.86269 z m -0.0234,46.03906 c 14.09615,-0.57078 27.98864,8.36502 32.26,22.03849 4.88896,15.08302 -0.40508,34.4043 -15.61842,41.37911 -15.66414,7.18523 -38.01394,3.57993 -46.44038,-12.75009 -8.21424,-15.4077 -3.92742,-37.5042 11.932,-46.32311 5.31719,-3.13948 11.75957,-4.20701 17.8668,-4.3444 z"
     id="path3454"
     inkscape:connector-curvature="0" />
  <path
     d="M 1002.5195 425.48828 C 997.93047 425.49297 993.34414 425.80625 988.83789 426.4375 C 975.85039 427.4125 963.0375 430.7 951.3125 436.375 C 933.275 444.775 918.33789 459.475 909.65039 477.375 C 907.86289 481.4875 906.13828 485.62422 904.73828 489.88672 C 896.35078 517.39922 897.63828 548.52461 910.86328 574.34961 C 920.33828 592.17461 936.33828 606.17461 954.86328 614.03711 C 964.45078 618.29961 974.67422 620.87461 985.01172 622.53711 C 989.32422 623.21211 993.69922 623.4125 998.07422 623.375 L 998.17578 624.13672 C 1004.0008 624.26172 1009.8383 624.2875 1015.6758 624.125 L 1015.6992 623.38672 C 1023.5992 623.71172 1031.3121 621.82539 1039.0371 620.40039 L 1039.8379 619.90039 C 1045.9379 618.56289 1051.7496 616.23828 1057.4121 613.67578 C 1071.8746 607.08828 1084.5504 596.43828 1092.9004 582.86328 C 1096.8879 575.56328 1100.5371 567.99961 1102.1621 559.78711 C 1081.0621 559.81211 1059.9496 559.78828 1038.8496 559.80078 C 1035.6621 564.98828 1031.3883 569.46328 1026.4258 572.98828 C 1013.3383 579.10078 997.93789 578.32461 984.77539 572.91211 C 979.82539 570.14961 975.33711 566.46172 972.22461 561.69922 C 967.03711 554.16172 965.8875 544.72422 965.5 535.82422 C 1011.85 535.84922 1058.1871 535.7375 1104.5371 535.875 C 1104.9996 517.8 1103.2746 499.37461 1096.4746 482.47461 C 1091.6371 470.34961 1084.3254 459.13789 1074.7129 450.27539 C 1058.7879 435.76289 1037.5629 427.82422 1016.2129 426.38672 C 1011.7004 425.78672 1007.1086 425.48359 1002.5195 425.48828 z M 1005.8027 468.33398 C 1012.2651 468.40312 1018.6914 469.91211 1024.375 472.96289 C 1034.15 477.78789 1041.175 487.32461 1043.5 497.91211 C 1017.9 497.98711 992.31211 497.925 966.72461 497.9375 C 966.96211 496.9375 967.43828 494.92578 967.67578 493.92578 C 968.43828 491.82578 969.28828 489.74922 970.17578 487.69922 C 977.19687 474.99766 991.58545 468.18188 1005.8027 468.33398 z "
     id="path3456"
     transform="scale(0.8,0.8)" />
  <path
     style="fill:#020202"
     d="m 412.64,345.54 c 17.67998,0.02 35.3601,0.06 53.04,-0.02 1.8e-4,28.46679 -0.28967,56.95113 0.1125,85.4075 0.50699,8.6065 3.00734,18.02541 10.90055,22.76171 9.1194,4.71887 20.79323,4.81746 30.07625,0.35706 11.11935,-6.03571 11.95106,-20.33598 11.8643,-31.55877 0.0358,-25.64915 0.0255,-51.29835 -0.004,-76.9475 17.65664,0.02 35.31357,0.08 52.97,-0.04 -0.26852,31.41448 0.26891,62.84136 -0.2643,94.24803 -0.50651,17.08413 -7.24413,34.70529 -21.46666,44.96102 -16.85759,12.22606 -38.4603,14.41053 -58.64706,14.70502 -6.82305,-0.0934 -12.72376,-0.9602 -19.78788,-1.38306 -19.74559,-2.21163 -40.77073,-10.61942 -50.82202,-28.82509 -7.80885,-13.94126 -8.42027,-30.32337 -7.93327,-45.90021 0.003,-25.9219 0.0299,-51.84386 -0.0388,-77.76571 z"
     id="path3458"
     inkscape:connector-curvature="0" />
  <path
     inkscape:connector-curvature="0"
     id="path3342"
     d="m 629.02806,343.47378 c 20.1438,-6.02421 41.78213,-4.49905 61.94572,0.61361 4.12356,2.36617 16.47264,2.09197 12.08928,8.85264 -5.42438,9.87486 -10.47758,19.96262 -15.825,29.88375 -11.5103,-5.18323 -24.8785,-9.68099 -37.42394,-5.62796 -6.26253,1.61119 -10.66372,9.21799 -5.39496,14.40609 9.82852,7.62474 23.18515,5.90294 34.25682,10.55093 14.13031,4.44774 27.50206,15.53676 29.60706,30.90395 2.16094,14.50491 0.11069,30.46278 -9.75373,41.93574 -13.36415,16.17353 -35.18889,22.70583 -55.5179,23.32054 -22.51026,0.96525 -45.26157,-5.25343 -64.30335,-17.23929 6.71138,-12.15253 12.99256,-24.53506 19.3,-36.9 10.80479,7.54976 23.37563,12.87271 36.39385,14.98443 8.0767,1.31808 19.12204,-0.2645 21.83787,-9.33584 1.80992,-9.68478 -9.94729,-12.96168 -17.30454,-14.60503 -14.69906,-3.36239 -31.63913,-5.61308 -41.60072,-18.28399 -8.51112,-11.68337 -8.76247,-27.74716 -4.52082,-41.10002 5.00823,-16.41855 20.37585,-27.531 36.21436,-32.35955 z"
     style="fill:#020202" />
</svg>
